<svg xmlns="http://www.w3.org/2000/svg" fill="none" viewBox="0 0 15 15">
  <path fill="#fff" d="M14.375 10 10 14.375V10h4.375Z" opacity=".2"/>
  <path fill="#505A5F" d="M4.375 5A.625.625 0 0 1 5 4.375h5a.625.625 0 1 1 0 1.25H5A.625.625 0 0 1 4.375 5ZM5 8.125h5a.625.625 0 1 0 0-1.25H5a.625.625 0 1 0 0 1.25Zm2.5 1.25H5a.625.625 0 1 0 0 1.25h2.5a.625.625 0 1 0 0-1.25ZM15 1.25v8.491a1.24 1.24 0 0 1-.366.884l-4.009 4.009a1.238 1.238 0 0 1-.884.366H1.25A1.25 1.25 0 0 1 0 13.75V1.25A1.25 1.25 0 0 1 1.25 0h12.5A1.25 1.25 0 0 1 15 1.25ZM1.25 13.75h8.125V10A.625.625 0 0 1 10 9.375h3.75V1.25H1.25v12.5Zm9.375-3.125v2.242l2.242-2.242h-2.242Z"/>
</svg>
